<mxfile host="app.diagrams.net" modified="2023-09-03T02:43:17.438Z" agent="Mozilla/5.0 (Windows NT 10.0; Win64; x64) AppleWebKit/537.36 (KHTML, like Gecko) Chrome/116.0.0.0 Safari/537.36" etag="jqD8vuY8_MwplqJC8AJp" version="21.7.2" type="github">
  <diagram id="R2lEEEUBdFMjLlhIrx00" name="Page-1">
    <mxGraphModel dx="1035" dy="1464" grid="1" gridSize="10" guides="1" tooltips="1" connect="1" arrows="1" fold="1" page="1" pageScale="1" pageWidth="1100" pageHeight="850" background="none" math="0" shadow="0" extFonts="Permanent Marker^https://fonts.googleapis.com/css?family=Permanent+Marker">
      <root>
        <mxCell id="0" />
        <mxCell id="1" parent="0" />
        <mxCell id="Y1Qn_ceeOtPsz5CFs5J6-47" style="rounded=0;orthogonalLoop=1;jettySize=auto;html=1;entryX=1;entryY=0.5;entryDx=0;entryDy=0;endArrow=none;endFill=0;labelBackgroundColor=none;fontColor=default;" edge="1" parent="1" source="Y1Qn_ceeOtPsz5CFs5J6-31" target="Y1Qn_ceeOtPsz5CFs5J6-46">
          <mxGeometry relative="1" as="geometry" />
        </mxCell>
        <mxCell id="Y1Qn_ceeOtPsz5CFs5J6-48" style="rounded=0;orthogonalLoop=1;jettySize=auto;html=1;entryX=1;entryY=0.5;entryDx=0;entryDy=0;endArrow=none;endFill=0;labelBackgroundColor=none;fontColor=default;" edge="1" parent="1" source="Y1Qn_ceeOtPsz5CFs5J6-31" target="Y1Qn_ceeOtPsz5CFs5J6-38">
          <mxGeometry relative="1" as="geometry" />
        </mxCell>
        <mxCell id="Y1Qn_ceeOtPsz5CFs5J6-49" style="rounded=0;orthogonalLoop=1;jettySize=auto;html=1;entryX=1;entryY=0.5;entryDx=0;entryDy=0;endArrow=none;endFill=0;labelBackgroundColor=none;fontColor=default;" edge="1" parent="1" source="Y1Qn_ceeOtPsz5CFs5J6-31" target="Y1Qn_ceeOtPsz5CFs5J6-40">
          <mxGeometry relative="1" as="geometry" />
        </mxCell>
        <mxCell id="Y1Qn_ceeOtPsz5CFs5J6-31" value="ARBITRO" style="whiteSpace=wrap;html=1;align=center;labelBackgroundColor=none;" vertex="1" parent="1">
          <mxGeometry x="250" y="-50" width="100" height="40" as="geometry" />
        </mxCell>
        <mxCell id="Y1Qn_ceeOtPsz5CFs5J6-51" style="rounded=0;orthogonalLoop=1;jettySize=auto;html=1;entryX=0.4;entryY=1;entryDx=0;entryDy=0;entryPerimeter=0;endArrow=none;endFill=0;labelBackgroundColor=none;fontColor=default;" edge="1" parent="1" source="Y1Qn_ceeOtPsz5CFs5J6-32" target="Y1Qn_ceeOtPsz5CFs5J6-45">
          <mxGeometry relative="1" as="geometry" />
        </mxCell>
        <mxCell id="Y1Qn_ceeOtPsz5CFs5J6-52" style="rounded=0;orthogonalLoop=1;jettySize=auto;html=1;entryX=0;entryY=0.5;entryDx=0;entryDy=0;endArrow=none;endFill=0;labelBackgroundColor=none;fontColor=default;" edge="1" parent="1" source="Y1Qn_ceeOtPsz5CFs5J6-32" target="Y1Qn_ceeOtPsz5CFs5J6-43">
          <mxGeometry relative="1" as="geometry" />
        </mxCell>
        <mxCell id="Y1Qn_ceeOtPsz5CFs5J6-53" style="rounded=0;orthogonalLoop=1;jettySize=auto;html=1;entryX=0;entryY=0.5;entryDx=0;entryDy=0;endArrow=none;endFill=0;labelBackgroundColor=none;fontColor=default;" edge="1" parent="1" source="Y1Qn_ceeOtPsz5CFs5J6-32" target="Y1Qn_ceeOtPsz5CFs5J6-42">
          <mxGeometry relative="1" as="geometry" />
        </mxCell>
        <mxCell id="Y1Qn_ceeOtPsz5CFs5J6-54" style="rounded=0;orthogonalLoop=1;jettySize=auto;html=1;entryX=0;entryY=0.5;entryDx=0;entryDy=0;endArrow=none;endFill=0;labelBackgroundColor=none;fontColor=default;" edge="1" parent="1" source="Y1Qn_ceeOtPsz5CFs5J6-32" target="Y1Qn_ceeOtPsz5CFs5J6-44">
          <mxGeometry relative="1" as="geometry" />
        </mxCell>
        <mxCell id="Y1Qn_ceeOtPsz5CFs5J6-32" value="JUGADOR" style="whiteSpace=wrap;html=1;align=center;labelBackgroundColor=none;" vertex="1" parent="1">
          <mxGeometry x="710" y="50" width="100" height="40" as="geometry" />
        </mxCell>
        <mxCell id="Y1Qn_ceeOtPsz5CFs5J6-38" value="NOMBRE" style="ellipse;whiteSpace=wrap;html=1;align=center;labelBackgroundColor=none;" vertex="1" parent="1">
          <mxGeometry x="120" y="-60" width="100" height="40" as="geometry" />
        </mxCell>
        <mxCell id="Y1Qn_ceeOtPsz5CFs5J6-39" value="TELEFONO" style="ellipse;whiteSpace=wrap;html=1;align=center;labelBackgroundColor=none;" vertex="1" parent="1">
          <mxGeometry x="190" y="30" width="100" height="40" as="geometry" />
        </mxCell>
        <mxCell id="Y1Qn_ceeOtPsz5CFs5J6-40" value="DIRECCION" style="ellipse;whiteSpace=wrap;html=1;align=center;labelBackgroundColor=none;" vertex="1" parent="1">
          <mxGeometry x="100" y="-10" width="100" height="40" as="geometry" />
        </mxCell>
        <mxCell id="Y1Qn_ceeOtPsz5CFs5J6-42" value="NOMBRE" style="ellipse;whiteSpace=wrap;html=1;align=center;labelBackgroundColor=none;" vertex="1" parent="1">
          <mxGeometry x="830" y="110" width="100" height="40" as="geometry" />
        </mxCell>
        <mxCell id="Y1Qn_ceeOtPsz5CFs5J6-43" value="TELEFONO" style="ellipse;whiteSpace=wrap;html=1;align=center;labelBackgroundColor=none;" vertex="1" parent="1">
          <mxGeometry x="830" y="10" width="100" height="40" as="geometry" />
        </mxCell>
        <mxCell id="Y1Qn_ceeOtPsz5CFs5J6-44" value="DIRECCION" style="ellipse;whiteSpace=wrap;html=1;align=center;labelBackgroundColor=none;" vertex="1" parent="1">
          <mxGeometry x="840" y="60" width="100" height="40" as="geometry" />
        </mxCell>
        <mxCell id="Y1Qn_ceeOtPsz5CFs5J6-45" value="NUMERO DE ASOCIADO" style="ellipse;whiteSpace=wrap;html=1;align=center;fontStyle=4;labelBackgroundColor=none;" vertex="1" parent="1">
          <mxGeometry x="750" y="-45" width="100" height="40" as="geometry" />
        </mxCell>
        <mxCell id="Y1Qn_ceeOtPsz5CFs5J6-46" value="NUMERO DE ASOCIADO" style="ellipse;whiteSpace=wrap;html=1;align=center;fontStyle=4;labelBackgroundColor=none;" vertex="1" parent="1">
          <mxGeometry x="190" y="-110" width="100" height="40" as="geometry" />
        </mxCell>
        <mxCell id="Y1Qn_ceeOtPsz5CFs5J6-50" style="rounded=0;orthogonalLoop=1;jettySize=auto;html=1;entryX=1;entryY=0.5;entryDx=0;entryDy=0;endArrow=none;endFill=0;labelBackgroundColor=none;fontColor=default;" edge="1" parent="1" source="Y1Qn_ceeOtPsz5CFs5J6-31" target="Y1Qn_ceeOtPsz5CFs5J6-39">
          <mxGeometry relative="1" as="geometry" />
        </mxCell>
        <mxCell id="Y1Qn_ceeOtPsz5CFs5J6-55" value="&lt;font style=&quot;font-size: 15px;&quot;&gt;Ejercicio 5:&lt;br&gt;“El club de Ajedrez de Tuluá ha sido encargado por la Federación Internacional de Ajedrez para la organización&lt;br&gt;de los próximos campeonatos mundiales que se celebrarán en la mencionada localidad. Por este motivo, desea&lt;br&gt;llevar una base de datos con toda la gestión relativa a participantes, alojamientos y partidas. Teniendo en cuenta&lt;br&gt;que:&lt;br&gt;En el campeonato participan&lt;font color=&quot;#ff0000&quot;&gt; jugadores&lt;/font&gt; y &lt;font color=&quot;#3333ff&quot;&gt;árbitros&lt;/font&gt;&lt;font color=&quot;#ffff33&quot;&gt;;&lt;/font&gt; de ambos se requiere conocer el&lt;font color=&quot;#33ff33&quot;&gt; número de asociado, nombre,&lt;br&gt;dirección y teléfono de contacto.&lt;/font&gt; De los jugadores se precisa además el &lt;font color=&quot;#ff3333&quot;&gt;nivel de juego&lt;/font&gt; en una escala de 1 a 10.&lt;br&gt;De los árbitros se debe registrar la &lt;font color=&quot;#3333ff&quot;&gt;cantidad de partidas que ha arbitrado.&lt;/font&gt;&lt;br&gt;&lt;font color=&quot;#00cccc&quot;&gt;Los &lt;/font&gt;&lt;font color=&quot;#cc0066&quot;&gt;países&lt;/font&gt;&lt;font color=&quot;#00cccc&quot;&gt; envían al campeonato un conjunto de jugadores y árbitros, aunque no todos los países envían&lt;/font&gt;&lt;br&gt;&lt;font color=&quot;#00cccc&quot;&gt;participantes&lt;/font&gt;. Todo jugador y árbitro es enviado por un único país. Un país puede ser representado por otro país.&lt;br&gt;Cada país se identifica por un número correlativo según su orden alfabético e interesa conocer además de su&lt;br&gt;nombre, el número de clubes de ajedrez existentes en el mismo.&lt;br&gt;Cada &lt;font color=&quot;#999900&quot;&gt;partida &lt;/font&gt;se identifica por un n&lt;font color=&quot;#999900&quot;&gt;úmero correlativo (cod_p)&lt;/font&gt;, la juegan dos jugadores y la arbitra un árbitro.&lt;br&gt;Interesa registrar las partidas que juegan cada jugador y el color (blancas o negras) con el que juega. Ha de&lt;br&gt;tenerse en cuenta que un árbitro no puede arbitrar a jugadores enviados por el mismo país que le ha enviado a&lt;br&gt;él. Todo participante participa al menos en una partida.&lt;br&gt;Tanto jugadores como árbitros se alojan en uno de los hoteles en los que se desarrollan las partidas, se desea&lt;br&gt;conocer en qué hotel y en qué fechas se ha alojado cada uno de los participantes. Los participantes pueden no&lt;br&gt;permanecer en Tuluá durante todo el campeonato, sino acudir cuando tienen que jugar alguna partida&lt;br&gt;alojándose en el mismo o distinto hotel. De cada hotel, se desea conocer el nombre, la dirección y el número de&lt;br&gt;teléfono.&lt;br&gt;El campeonato se desarrolla a lo largo de una serie de jornadas (año, mes, día) y cada partida tiene lugar en una&lt;br&gt;de las jornadas aunque no tengan lugar partidas todas las jornadas.&lt;br&gt;Cada partida se celebra en una de las salas de las que pueden disponer los hoteles, se desea conocer el número&lt;br&gt;de entradas vendidas en la sala para cada partida. De cada sala, se desea conocer la capacidad y medios de que&lt;br&gt;dispone (radio, televisión, vídeo…) para facilitar la retransmisión de los encuentros. Una sala puede disponer de&lt;br&gt;varios medios distintos.&lt;br&gt;De cada partida se pretende registrar todos los movimientos que la componen, la identificación de movimiento&lt;br&gt;se establece con base en un número de orden dentro de cada partida: para cada movimiento se guardan la&lt;br&gt;jugada y un breve comentario realizado por un experto.”&lt;/font&gt;" style="text;html=1;align=center;verticalAlign=middle;resizable=0;points=[];autosize=1;strokeColor=none;fillColor=none;labelBackgroundColor=none;" vertex="1" parent="1">
          <mxGeometry x="30" y="-800" width="780" height="550" as="geometry" />
        </mxCell>
        <mxCell id="Y1Qn_ceeOtPsz5CFs5J6-77" style="edgeStyle=orthogonalEdgeStyle;rounded=0;orthogonalLoop=1;jettySize=auto;html=1;entryX=0.5;entryY=1;entryDx=0;entryDy=0;endArrow=none;endFill=0;startArrow=none;startFill=0;labelBackgroundColor=none;fontColor=default;" edge="1" parent="1" source="Y1Qn_ceeOtPsz5CFs5J6-56" target="Y1Qn_ceeOtPsz5CFs5J6-71">
          <mxGeometry relative="1" as="geometry" />
        </mxCell>
        <mxCell id="Y1Qn_ceeOtPsz5CFs5J6-56" value="&lt;font style=&quot;font-size: 17px;&quot;&gt;&lt;font style=&quot;font-size: 17px;&quot;&gt;PA&lt;/font&gt;IS&lt;/font&gt;" style="whiteSpace=wrap;html=1;align=center;labelBackgroundColor=none;" vertex="1" parent="1">
          <mxGeometry x="310" y="320" width="100" height="40" as="geometry" />
        </mxCell>
        <mxCell id="Y1Qn_ceeOtPsz5CFs5J6-57" style="rounded=0;orthogonalLoop=1;jettySize=auto;html=1;entryX=1;entryY=0.5;entryDx=0;entryDy=0;endArrow=none;endFill=0;labelBackgroundColor=none;fontColor=default;" edge="1" target="Y1Qn_ceeOtPsz5CFs5J6-63" parent="1">
          <mxGeometry relative="1" as="geometry">
            <mxPoint x="338" y="320" as="sourcePoint" />
          </mxGeometry>
        </mxCell>
        <mxCell id="Y1Qn_ceeOtPsz5CFs5J6-58" style="rounded=0;orthogonalLoop=1;jettySize=auto;html=1;entryX=1;entryY=0.5;entryDx=0;entryDy=0;endArrow=none;endFill=0;labelBackgroundColor=none;fontColor=default;exitX=0;exitY=0.5;exitDx=0;exitDy=0;" edge="1" target="Y1Qn_ceeOtPsz5CFs5J6-60" parent="1" source="Y1Qn_ceeOtPsz5CFs5J6-56">
          <mxGeometry relative="1" as="geometry">
            <mxPoint x="310" y="332" as="sourcePoint" />
          </mxGeometry>
        </mxCell>
        <mxCell id="Y1Qn_ceeOtPsz5CFs5J6-59" style="rounded=0;orthogonalLoop=1;jettySize=auto;html=1;entryX=0.582;entryY=0.003;entryDx=0;entryDy=0;endArrow=none;endFill=0;labelBackgroundColor=none;fontColor=default;exitX=0.5;exitY=1;exitDx=0;exitDy=0;entryPerimeter=0;" edge="1" target="Y1Qn_ceeOtPsz5CFs5J6-62" parent="1" source="Y1Qn_ceeOtPsz5CFs5J6-56">
          <mxGeometry relative="1" as="geometry">
            <mxPoint x="310" y="354" as="sourcePoint" />
          </mxGeometry>
        </mxCell>
        <mxCell id="Y1Qn_ceeOtPsz5CFs5J6-60" value="NOMBRE" style="ellipse;whiteSpace=wrap;html=1;align=center;labelBackgroundColor=none;" vertex="1" parent="1">
          <mxGeometry x="180" y="340" width="100" height="40" as="geometry" />
        </mxCell>
        <mxCell id="Y1Qn_ceeOtPsz5CFs5J6-62" value="NUM CLUBES" style="ellipse;whiteSpace=wrap;html=1;align=center;labelBackgroundColor=none;" vertex="1" parent="1">
          <mxGeometry x="300" y="390" width="100" height="40" as="geometry" />
        </mxCell>
        <mxCell id="Y1Qn_ceeOtPsz5CFs5J6-63" value="NUMERO CORRELATIVO" style="ellipse;whiteSpace=wrap;html=1;align=center;fontStyle=4;labelBackgroundColor=none;" vertex="1" parent="1">
          <mxGeometry x="200" y="280" width="100" height="40" as="geometry" />
        </mxCell>
        <mxCell id="Y1Qn_ceeOtPsz5CFs5J6-66" style="rounded=0;orthogonalLoop=1;jettySize=auto;html=1;endArrow=none;endFill=0;labelBackgroundColor=none;fontColor=default;" edge="1" parent="1" source="Y1Qn_ceeOtPsz5CFs5J6-65" target="Y1Qn_ceeOtPsz5CFs5J6-56">
          <mxGeometry relative="1" as="geometry">
            <mxPoint x="370" y="309.9999999999998" as="targetPoint" />
          </mxGeometry>
        </mxCell>
        <mxCell id="Y1Qn_ceeOtPsz5CFs5J6-67" style="rounded=0;orthogonalLoop=1;jettySize=auto;html=1;endArrow=none;endFill=0;entryX=1;entryY=0.75;entryDx=0;entryDy=0;labelBackgroundColor=none;fontColor=default;" edge="1" parent="1" source="Y1Qn_ceeOtPsz5CFs5J6-65" target="Y1Qn_ceeOtPsz5CFs5J6-31">
          <mxGeometry relative="1" as="geometry">
            <mxPoint x="350" y="-2.2737367544323206e-13" as="targetPoint" />
          </mxGeometry>
        </mxCell>
        <mxCell id="Y1Qn_ceeOtPsz5CFs5J6-65" value="ENVIA" style="shape=rhombus;perimeter=rhombusPerimeter;whiteSpace=wrap;html=1;align=center;labelBackgroundColor=none;" vertex="1" parent="1">
          <mxGeometry x="300" y="130" width="120" height="60" as="geometry" />
        </mxCell>
        <mxCell id="Y1Qn_ceeOtPsz5CFs5J6-68" value="1:M" style="text;html=1;align=center;verticalAlign=middle;resizable=0;points=[];autosize=1;strokeColor=none;fillColor=none;labelBackgroundColor=none;" vertex="1" parent="1">
          <mxGeometry x="305" y="-5" width="40" height="30" as="geometry" />
        </mxCell>
        <mxCell id="Y1Qn_ceeOtPsz5CFs5J6-69" value="M:M" style="text;html=1;align=center;verticalAlign=middle;resizable=0;points=[];autosize=1;strokeColor=none;fillColor=none;labelBackgroundColor=none;" vertex="1" parent="1">
          <mxGeometry x="320" y="290" width="50" height="30" as="geometry" />
        </mxCell>
        <mxCell id="Y1Qn_ceeOtPsz5CFs5J6-70" value="M;M" style="text;html=1;align=center;verticalAlign=middle;resizable=0;points=[];autosize=1;strokeColor=none;fillColor=none;labelBackgroundColor=none;" vertex="1" parent="1">
          <mxGeometry x="250" y="140" width="50" height="30" as="geometry" />
        </mxCell>
        <mxCell id="Y1Qn_ceeOtPsz5CFs5J6-73" style="edgeStyle=orthogonalEdgeStyle;rounded=0;orthogonalLoop=1;jettySize=auto;html=1;entryX=0.5;entryY=1;entryDx=0;entryDy=0;endArrow=none;endFill=0;labelBackgroundColor=none;fontColor=default;" edge="1" parent="1" source="Y1Qn_ceeOtPsz5CFs5J6-71" target="Y1Qn_ceeOtPsz5CFs5J6-32">
          <mxGeometry relative="1" as="geometry" />
        </mxCell>
        <mxCell id="Y1Qn_ceeOtPsz5CFs5J6-71" value="ENVIA" style="shape=rhombus;perimeter=rhombusPerimeter;whiteSpace=wrap;html=1;align=center;labelBackgroundColor=none;" vertex="1" parent="1">
          <mxGeometry x="580" y="190" width="120" height="60" as="geometry" />
        </mxCell>
        <mxCell id="Y1Qn_ceeOtPsz5CFs5J6-74" value="1:M" style="text;html=1;align=center;verticalAlign=middle;resizable=0;points=[];autosize=1;strokeColor=none;fillColor=none;labelBackgroundColor=none;" vertex="1" parent="1">
          <mxGeometry x="725" y="88" width="40" height="30" as="geometry" />
        </mxCell>
        <mxCell id="Y1Qn_ceeOtPsz5CFs5J6-80" value="1;1" style="text;html=1;align=center;verticalAlign=middle;resizable=0;points=[];autosize=1;strokeColor=none;fillColor=none;" vertex="1" parent="1">
          <mxGeometry x="410" y="310" width="40" height="30" as="geometry" />
        </mxCell>
        <mxCell id="Y1Qn_ceeOtPsz5CFs5J6-81" value="1:M" style="text;html=1;align=center;verticalAlign=middle;resizable=0;points=[];autosize=1;strokeColor=none;fillColor=none;" vertex="1" parent="1">
          <mxGeometry x="540" y="208" width="40" height="30" as="geometry" />
        </mxCell>
        <mxCell id="Y1Qn_ceeOtPsz5CFs5J6-96" style="edgeStyle=orthogonalEdgeStyle;rounded=0;orthogonalLoop=1;jettySize=auto;html=1;entryX=0.5;entryY=1;entryDx=0;entryDy=0;endArrow=none;endFill=0;" edge="1" parent="1" source="Y1Qn_ceeOtPsz5CFs5J6-84" target="Y1Qn_ceeOtPsz5CFs5J6-94">
          <mxGeometry relative="1" as="geometry" />
        </mxCell>
        <mxCell id="Y1Qn_ceeOtPsz5CFs5J6-84" value="&lt;font style=&quot;font-size: 17px;&quot;&gt;&lt;font style=&quot;font-size: 17px;&quot;&gt;PA&lt;/font&gt;IS&lt;/font&gt;" style="whiteSpace=wrap;html=1;align=center;labelBackgroundColor=none;" vertex="1" parent="1">
          <mxGeometry x="635" y="530" width="100" height="40" as="geometry" />
        </mxCell>
        <mxCell id="Y1Qn_ceeOtPsz5CFs5J6-85" style="rounded=0;orthogonalLoop=1;jettySize=auto;html=1;entryX=0.026;entryY=0.724;entryDx=0;entryDy=0;endArrow=none;endFill=0;labelBackgroundColor=none;fontColor=default;entryPerimeter=0;" edge="1" target="Y1Qn_ceeOtPsz5CFs5J6-90" parent="1">
          <mxGeometry relative="1" as="geometry">
            <mxPoint x="663" y="530" as="sourcePoint" />
          </mxGeometry>
        </mxCell>
        <mxCell id="Y1Qn_ceeOtPsz5CFs5J6-86" style="rounded=0;orthogonalLoop=1;jettySize=auto;html=1;entryX=1;entryY=0.5;entryDx=0;entryDy=0;endArrow=none;endFill=0;labelBackgroundColor=none;fontColor=default;" edge="1" target="Y1Qn_ceeOtPsz5CFs5J6-88" parent="1">
          <mxGeometry relative="1" as="geometry">
            <mxPoint x="735" y="560" as="sourcePoint" />
          </mxGeometry>
        </mxCell>
        <mxCell id="Y1Qn_ceeOtPsz5CFs5J6-88" value="NOMBRE" style="ellipse;whiteSpace=wrap;html=1;align=center;labelBackgroundColor=none;" vertex="1" parent="1">
          <mxGeometry x="755" y="540" width="100" height="40" as="geometry" />
        </mxCell>
        <mxCell id="Y1Qn_ceeOtPsz5CFs5J6-93" style="rounded=0;orthogonalLoop=1;jettySize=auto;html=1;entryX=0.603;entryY=1.032;entryDx=0;entryDy=0;entryPerimeter=0;endArrow=none;endFill=0;" edge="1" parent="1" source="Y1Qn_ceeOtPsz5CFs5J6-89" target="Y1Qn_ceeOtPsz5CFs5J6-84">
          <mxGeometry relative="1" as="geometry" />
        </mxCell>
        <mxCell id="Y1Qn_ceeOtPsz5CFs5J6-89" value="NUM CLUBES" style="ellipse;whiteSpace=wrap;html=1;align=center;labelBackgroundColor=none;" vertex="1" parent="1">
          <mxGeometry x="685" y="590" width="100" height="40" as="geometry" />
        </mxCell>
        <mxCell id="Y1Qn_ceeOtPsz5CFs5J6-90" value="NUMERO CORRELATIVO" style="ellipse;whiteSpace=wrap;html=1;align=center;fontStyle=4;labelBackgroundColor=none;" vertex="1" parent="1">
          <mxGeometry x="715" y="480" width="100" height="40" as="geometry" />
        </mxCell>
        <mxCell id="Y1Qn_ceeOtPsz5CFs5J6-95" style="rounded=0;orthogonalLoop=1;jettySize=auto;html=1;entryX=1;entryY=1;entryDx=0;entryDy=0;endArrow=none;endFill=0;" edge="1" parent="1" source="Y1Qn_ceeOtPsz5CFs5J6-94" target="Y1Qn_ceeOtPsz5CFs5J6-56">
          <mxGeometry relative="1" as="geometry" />
        </mxCell>
        <mxCell id="Y1Qn_ceeOtPsz5CFs5J6-94" value="REPRECENTA" style="shape=rhombus;perimeter=rhombusPerimeter;whiteSpace=wrap;html=1;align=center;labelBackgroundColor=none;" vertex="1" parent="1">
          <mxGeometry x="460" y="425" width="120" height="60" as="geometry" />
        </mxCell>
        <mxCell id="Y1Qn_ceeOtPsz5CFs5J6-97" value="1;1" style="text;html=1;align=center;verticalAlign=middle;resizable=0;points=[];autosize=1;strokeColor=none;fillColor=none;" vertex="1" parent="1">
          <mxGeometry x="590" y="520" width="40" height="30" as="geometry" />
        </mxCell>
        <mxCell id="Y1Qn_ceeOtPsz5CFs5J6-98" value="1;1" style="text;html=1;align=center;verticalAlign=middle;resizable=0;points=[];autosize=1;strokeColor=none;fillColor=none;" vertex="1" parent="1">
          <mxGeometry x="400" y="340" width="40" height="30" as="geometry" />
        </mxCell>
        <mxCell id="Y1Qn_ceeOtPsz5CFs5J6-99" value="1;1" style="text;html=1;align=center;verticalAlign=middle;resizable=0;points=[];autosize=1;strokeColor=none;fillColor=none;" vertex="1" parent="1">
          <mxGeometry x="430" y="440" width="40" height="30" as="geometry" />
        </mxCell>
      </root>
    </mxGraphModel>
  </diagram>
</mxfile>
